<svg width="36" height="36" viewBox="0 0 36 36" fill="none" xmlns="http://www.w3.org/2000/svg">
<circle cx="18" cy="18" r="18" fill="#DBDEE9"/>
<path fill-rule="evenodd" clip-rule="evenodd" d="M9.6001 24.7195C9.6001 22.3088 11.7647 20.5195 14.2201 20.5195H21.7801C24.2355 20.5195 26.4001 22.3088 26.4001 24.7195C26.4001 25.1835 26.024 25.5595 25.5601 25.5595C25.0962 25.5595 24.7201 25.1835 24.7201 24.7195C24.7201 23.4175 23.4995 22.1995 21.7801 22.1995H14.2201C12.5007 22.1995 11.2801 23.4175 11.2801 24.7195C11.2801 25.1835 10.904 25.5595 10.4401 25.5595C9.97618 25.5595 9.6001 25.1835 9.6001 24.7195Z" fill="white"/>
<path fill-rule="evenodd" clip-rule="evenodd" d="M18 12.1195C16.6076 12.1195 15.48 13.247 15.48 14.6395C15.48 16.0319 16.6076 17.1595 18 17.1595C19.3925 17.1595 20.52 16.0319 20.52 14.6395V12.1195H18ZM13.8 14.6395C13.8 12.3191 15.6797 10.4395 18 10.4395H20.94C21.6358 10.4395 22.2 11.0037 22.2 11.6995V14.6395C22.2 16.9598 20.3204 18.8395 18 18.8395C15.6797 18.8395 13.8 16.9598 13.8 14.6395Z" fill="white"/>
</svg>
