<svg width="16" height="16" viewBox="0 0 16 16" fill="none" xmlns="http://www.w3.org/2000/svg">
<path fill-rule="evenodd" clip-rule="evenodd" d="M15 1.97907H1V14.9989H15V1.97907ZM0 0.977539V16.0004H16V0.977539H0Z" fill="#1D1D1B"/>
<path d="M0.977539 5.00781H15.0233V5.98491H0.977539V5.00781Z" fill="#1D1D1B"/>
<path d="M3.05371 0H4.03081V3.05344H3.05371V0Z" fill="#1D1D1B"/>
<path d="M11.9697 0H12.9468V3.05344H11.9697V0Z" fill="#1D1D1B"/>
<path d="M3.05371 9.03809L3.05371 8.06099L5.00791 8.06099L5.00791 9.03809L3.05371 9.03809Z" fill="#1D1D1B"/>
<path d="M3.05371 12.9463L3.05371 11.9692L5.00791 11.9692L5.00791 12.9463L3.05371 12.9463Z" fill="#1D1D1B"/>
<path d="M3.05371 10.9922L3.05371 10.0151L5.00791 10.0151L5.00791 10.9922L3.05371 10.9922Z" fill="#1D1D1B"/>
<path d="M6.96191 9.03809L6.96191 8.06099L9.03825 8.06099L9.03825 9.03809L6.96191 9.03809Z" fill="#1D1D1B"/>
<path d="M6.96191 12.9463L6.96191 11.9692L9.03825 11.9692L9.03825 12.9463L6.96191 12.9463Z" fill="#1D1D1B"/>
<path d="M6.96191 10.9922L6.96191 10.0151L9.03825 10.0151L9.03825 10.9922L6.96191 10.9922Z" fill="#1D1D1B"/>
<path d="M10.9922 9.03809L10.9922 8.06099L12.9464 8.06099L12.9464 9.03809L10.9922 9.03809Z" fill="#1D1D1B"/>
<path d="M10.9922 12.9463L10.9922 11.9692L12.9464 11.9692L12.9464 12.9463L10.9922 12.9463Z" fill="#1D1D1B"/>
<path d="M10.9922 10.9922L10.9922 10.0151L12.9464 10.0151L12.9464 10.9922L10.9922 10.9922Z" fill="#1D1D1B"/>
</svg>
  