<svg width="50" height="50" viewBox="0 0 50 50" fill="none" xmlns="http://www.w3.org/2000/svg">
<rect width="50" height="50" fill="#FF0000"/>
<path d="M8.49688 22.0059C7.11882 22.0059 6 23.126 6 24.5041C6 25.8822 7.11882 27.001 8.49688 27.001H11.3212C12.6979 27.001 13.8181 25.8808 13.8181 24.5041C13.8181 23.1274 12.6993 22.0059 11.3226 22.0059H8.49824H8.49688ZM6.95236 24.5041C6.95236 23.6131 7.67823 22.8886 8.56783 22.8886H11.2598C12.1508 22.8886 12.8739 23.6131 12.8739 24.5041C12.8739 25.3951 12.1508 26.1196 11.2598 26.1196H8.56783C7.67823 26.1196 6.95236 25.3937 6.95236 24.5041Z" fill="white"/>
<path d="M29.365 22.0059C27.9883 22.0059 26.8682 23.1247 26.8682 24.5041C26.8682 25.8835 27.9883 27.001 29.365 27.001H32.2303L32.7665 26.1359H29.4005C28.5014 26.1359 27.77 25.4032 27.77 24.5041C27.77 23.605 28.5014 22.8709 29.4005 22.8709H32.1744L32.7379 22.0059H29.365Z" fill="white"/>
<path d="M40.9317 26.125C40.1677 26.125 39.525 25.6325 39.3477 24.9325H43.4068L43.9908 24.0661H39.3695C39.5742 23.3989 40.1963 22.9105 40.9304 22.9105H43.6756L44.2705 22.0059H40.8908C39.5141 22.0059 38.3926 23.1247 38.3926 24.5041C38.3926 25.8835 39.5141 27.001 40.8908 27.001H43.7684L44.3237 26.125H40.9317Z" fill="white"/>
<path d="M14.7856 22.0293H14.3203V26.9671H15.2822V22.8957H18.4108C18.8543 22.8957 19.2158 23.2573 19.2158 23.7048C19.2158 24.1523 18.8543 24.5098 18.4108 24.5098L15.7639 24.5071L18.5172 26.9507L19.9089 26.9589C19.9089 26.9589 18.8174 26.0161 18.0997 25.3735H18.4722C19.3946 25.3735 20.1423 24.6258 20.1423 23.7048C20.1423 22.7838 19.3946 22.0293 18.4736 22.0293H14.7842H14.7856Z" fill="white"/>
<path d="M27.3144 26.9665L24.2936 22.2647C24.2295 22.1132 24.003 22 23.7315 22C23.46 22 23.2307 22.1132 23.168 22.2674L20.1963 26.9665L21.3042 26.9637C21.3042 26.9637 23.1871 23.9497 23.7519 23.0806C24.0166 23.4913 24.5733 24.3714 25.0891 25.1927H22.5172L23.1461 26.1137H25.669C25.9841 26.6158 26.2052 26.9706 26.2052 26.9706L27.3117 26.9651L27.3144 26.9665Z" fill="white"/>
<path d="M38.6042 26.0736H34.1631C34.1713 25.3641 34.1631 22.0336 34.1631 22.0336L33.2448 22.0254V26.5743C33.2326 26.678 33.2885 26.8008 33.4004 26.8854C33.4631 26.9332 33.5314 26.9618 33.5982 26.9714C33.6296 26.9741 33.6569 26.9741 33.6855 26.9714H38.0585L38.6029 26.0736H38.6042Z" fill="white"/>
</svg>
