<svg width="119" height="18" viewBox="0 0 119 18" fill="none" xmlns="http://www.w3.org/2000/svg">
<path fill-rule="evenodd" clip-rule="evenodd" d="M6.89551 0.0947266C9.19281 0.0947981 10.8977 0.824081 12.0547 2.28516C13.2118 3.74647 13.79 5.99969 13.79 9.04785C13.79 12.0958 13.2117 14.3483 12.0547 15.8096C10.8977 17.2706 9.17865 17.9999 6.89551 18C4.61215 18 2.87362 17.2708 1.72363 15.8096C0.573712 14.3483 6.05881e-05 12.0958 0 9.04785C0 5.99969 0.573651 3.74647 1.72363 2.28516C2.87361 0.823941 4.59798 0.0947266 6.89551 0.0947266ZM88.9521 17.7627H84.4893V9.02344H83.4502V9.04785C83.4502 10.6274 83.3272 11.9798 83.084 13.1094C82.8408 14.239 82.482 15.1655 82.0098 15.8926C81.5375 16.6195 80.9544 17.1526 80.2627 17.4912C79.5708 17.8299 78.7673 18 77.8535 18C76.9399 17.9999 76.1371 17.8298 75.4453 17.4912C74.7536 17.1526 74.1705 16.6194 73.6982 15.8926C73.226 15.1655 72.8663 14.2391 72.623 13.1094C72.3775 11.9798 72.2578 10.6274 72.2578 9.04785C72.2578 7.46811 72.3798 6.11509 72.623 4.98535C72.8663 3.85565 73.226 2.92924 73.6982 2.20215C74.1705 1.47528 74.7536 0.942127 75.4453 0.603516C76.1371 0.264928 76.9399 0.0947803 77.8535 0.0947266C79.5229 0.0947266 80.8289 0.686984 81.7734 1.87109C82.718 3.0553 83.2616 4.73016 83.4033 7.36621H84.4893V0H88.9521V17.7627ZM55.5859 15.0625C56.1692 15.0933 56.76 15.1526 57.3574 15.2402C57.9547 15.3279 58.5851 15.458 59.2461 15.6309C60.0797 15.8369 60.8762 15.9909 61.6318 16.0928C62.3873 16.1946 63.136 16.2471 63.875 16.2471C64.614 16.2471 65.3626 16.1946 66.1182 16.0928C66.8737 15.9909 67.6694 15.8369 68.5029 15.6309V17.2891C67.6695 17.4951 66.8737 17.6491 66.1182 17.751C65.3626 17.8528 64.614 17.9043 63.875 17.9043C63.1361 17.9043 62.3873 17.8528 61.6318 17.751C60.8762 17.6491 60.0797 17.4951 59.2461 17.2891C58.4126 17.083 57.6169 16.929 56.8613 16.8271C56.1057 16.7253 55.3572 16.6729 54.6182 16.6729C53.8791 16.6729 53.1306 16.7253 52.375 16.8271C51.6194 16.929 50.8237 17.083 49.9902 17.2891V11.6523H55.5859V15.0625ZM21.1104 17.7627H15.5137V0H21.1104V17.7627ZM44.7236 7.36621H46.9434V9.02344H44.7236V17.7627H39.1279V0H44.7236V7.36621ZM94.0762 17.7627H89.6133V0H94.0762V17.7627ZM37.6396 9.56836H30.627V15.418C30.7686 15.4487 30.9055 15.4819 31.04 15.5127C31.1746 15.5435 31.3115 15.5845 31.4531 15.6318C32.4921 15.9326 33.5623 16.082 34.665 16.082C35.7676 16.082 36.8372 15.9325 37.876 15.6318V17.2891C36.8371 17.5898 35.7677 17.7392 34.665 17.7393C33.5623 17.7393 32.4921 17.5899 31.4531 17.2891C30.4143 16.9884 29.3447 16.8399 28.2422 16.8398C27.1394 16.8398 26.0693 16.9883 25.0303 17.2891V7.91016H32.0439V2.20215H25.0303V0.544922H37.6396V9.56836ZM118.8 12.4111H115.305V17.3135H109.756V12.4111H105.812V17.3135H100.263V12.4111H96.7451V10.7529H118.8V12.4111ZM6.89551 2.33301C6.67594 2.33301 6.48168 2.40118 6.31641 2.53613C6.15113 2.67348 6.00966 2.97702 5.8916 3.44824C5.77353 3.91956 5.68615 4.59719 5.63184 5.48535C5.57753 6.3735 5.54883 7.56053 5.54883 9.04785C5.54883 10.5492 5.57753 11.7382 5.63184 12.6191C5.68615 13.5001 5.77354 14.1752 5.8916 14.6465C6.00966 15.1177 6.15113 15.4212 6.31641 15.5586C6.48168 15.6959 6.67594 15.7617 6.89551 15.7617C7.11486 15.7616 7.30848 15.6934 7.47363 15.5586C7.6389 15.4212 7.78038 15.1177 7.89844 14.6465C8.0165 14.1752 8.10389 13.5001 8.1582 12.6191C8.21251 11.7382 8.24121 10.5492 8.24121 9.04785C8.24121 7.54631 8.21251 6.3735 8.1582 5.48535C8.10389 4.59956 8.01651 3.91956 7.89844 3.44824C7.78038 2.97706 7.6389 2.67348 7.47363 2.53613C7.30848 2.39898 7.11486 2.33308 6.89551 2.33301ZM77.8535 2.33496C77.6341 2.33505 77.4475 2.40415 77.2988 2.53906C77.1501 2.6765 77.027 2.97275 76.9326 3.42969C76.8382 3.88679 76.7726 4.55971 76.7324 5.44531C76.6923 6.33344 76.6729 7.53224 76.6729 9.04785C76.6729 10.5632 76.6923 11.7637 76.7324 12.6494C76.7726 13.5374 76.8382 14.2079 76.9326 14.665C77.027 15.122 77.1501 15.4182 77.2988 15.5557C77.4475 15.6929 77.6341 15.7597 77.8535 15.7598C78.0589 15.7598 78.236 15.6905 78.3848 15.5557C78.5335 15.4183 78.6565 15.1221 78.751 14.665C78.8454 14.2079 78.9166 13.5351 78.9639 12.6494C79.0111 11.7638 79.0342 10.5632 79.0342 9.04785C79.0342 7.53224 79.0111 6.33344 78.9639 5.44531C78.9166 4.55962 78.8454 3.88679 78.751 3.42969C78.6565 2.97258 78.5335 2.67643 78.3848 2.53906C78.236 2.40182 78.0589 2.33496 77.8535 2.33496ZM59.1279 0.0703125C61.0808 0.0703125 62.6752 0.160405 63.9102 0.342773C65.145 0.525132 66.1109 0.785372 66.8027 1.12402C67.4945 1.46265 67.9717 1.87479 68.2314 2.35547C68.4911 2.83614 68.621 3.36927 68.6211 3.9541C68.6211 4.45843 68.5267 4.92535 68.3379 5.35156C68.149 5.7778 67.8063 6.15675 67.3105 6.48828C66.8147 6.81986 66.1342 7.09251 65.2676 7.30566C64.401 7.51879 63.2914 7.67285 61.9385 7.76758V8.92773H70.1562V10.5859H48.1006V8.92773H56.3418V7.76758C54.9725 7.67285 53.8558 7.51876 52.9893 7.30566C52.1226 7.09251 51.4422 6.81986 50.9463 6.48828C50.4505 6.15673 50.1078 5.77783 49.9189 5.35156C49.7301 4.92533 49.6357 4.45845 49.6357 3.9541C49.6358 3.36927 49.7657 2.83614 50.0254 2.35547C50.2852 1.87482 50.7624 1.46263 51.4541 1.12402C52.146 0.785398 53.1118 0.52512 54.3467 0.342773C55.5816 0.160426 57.1753 0.0703247 59.1279 0.0703125ZM116.911 2.20312H104.23V7.27148H117.146V8.92871H98.6338V0.544922H116.911V2.20312ZM59.1279 1.25488C58.3725 1.25491 57.7421 1.32569 57.2393 1.46777C56.7364 1.60984 56.3304 1.80626 56.0234 2.05957C55.7166 2.31287 55.4992 2.59954 55.374 2.92383C55.2489 3.24818 55.1846 3.59189 55.1846 3.9541C55.1846 4.31637 55.2489 4.65998 55.374 4.98438C55.4992 5.30885 55.7165 5.59619 56.0234 5.84961C56.3304 6.10289 56.7365 6.29935 57.2393 6.44141C57.7421 6.58348 58.3725 6.65427 59.1279 6.6543C59.8836 6.6543 60.5146 6.58351 61.0176 6.44141C61.5204 6.29934 61.9265 6.10291 62.2334 5.84961C62.5404 5.59619 62.7553 5.30885 62.8828 4.98438C63.0079 4.66 63.0723 4.31635 63.0723 3.9541C63.0722 3.59189 63.0079 3.24818 62.8828 2.92383C62.7553 2.59952 62.5402 2.31289 62.2334 2.05957C61.9265 1.80625 61.5204 1.60985 61.0176 1.46777C60.5146 1.32567 59.8836 1.25488 59.1279 1.25488Z" fill="url(#paint0_linear_3302_22413)"/>
<defs>
<linearGradient id="paint0_linear_3302_22413" x1="59.3999" y1="17.9998" x2="61.9409" y2="-1.60634" gradientUnits="userSpaceOnUse">
<stop stop-color="#355BE0"/>
<stop offset="1" stop-color="#B945CC"/>
</linearGradient>
</defs>
</svg>
