<svg width="131" height="13" viewBox="0 0 131 13" fill="none" xmlns="http://www.w3.org/2000/svg">
<path d="M2.18522 7.20462H5.6021C5.76103 7.20462 5.88022 7.07549 5.88022 6.9265V5.6849C5.88022 5.52597 5.7511 5.40678 5.6021 5.40678H2.18522C2.02629 5.40678 1.9071 5.27765 1.9071 5.12866V2.64546C1.9071 2.48654 2.03623 2.36734 2.18522 2.36734H5.91995C6.07888 2.36734 6.19807 2.23821 6.19807 2.08922V0.837689C6.19807 0.678764 6.06895 0.55957 5.91995 0.55957H0.278119C0.129126 0.55957 0 0.678764 0 0.837689V12.0618C0 12.2207 0.129126 12.3399 0.278119 12.3399H6.01928C6.17821 12.3399 6.2974 12.2108 6.2974 12.0618V10.8202C6.2974 10.6612 6.16827 10.542 6.01928 10.542H2.18522C2.02629 10.542 1.9071 10.4129 1.9071 10.2639V7.5026C1.9071 7.34368 2.03623 7.22448 2.18522 7.22448V7.20462Z" fill="#231815"/>
<path d="M15.1574 4.83068V3.27123C15.1574 1.46346 14.3231 0.55957 12.6841 0.55957H8.39317C8.23424 0.55957 8.11505 0.688697 8.11505 0.837689V12.0618C8.11505 12.2207 8.23424 12.3895 8.39317 12.3399L9.7341 11.9922C9.89302 11.9426 10.0122 11.8134 10.0122 11.6644V7.5026H11.224C11.3233 7.5026 11.4227 7.5622 11.4723 7.6516C11.4723 7.6516 13.3894 11.1678 14.035 12.3498C14.0847 12.4392 14.2237 12.4789 14.3429 12.4392C14.5515 12.3597 15.5249 11.7638 15.5249 11.7638C15.664 11.6843 15.7037 11.5155 15.6342 11.3764L13.5582 7.71119C13.4688 7.55227 13.5582 7.36354 13.7271 7.30395C14.7005 6.94637 15.1673 6.13188 15.1673 4.83068H15.1574ZM10.0122 2.62559C10.0122 2.46667 10.1413 2.34748 10.2903 2.34748H12.4557C13.0119 2.34748 13.2503 2.63553 13.2503 3.31096V4.77108C13.2503 5.47631 13.002 5.73456 12.3166 5.73456H10.2903C10.1314 5.73456 10.0122 5.60544 10.0122 5.45644V2.63553V2.62559Z" fill="#231815"/>
<path d="M19.5379 0.768159L16.7369 11.3764C16.7071 11.5353 16.7865 11.6942 16.9355 11.7836L18.1473 12.469C18.2963 12.5187 18.4453 12.4094 18.485 12.2604L19.2896 9.09185C19.3194 8.96273 19.4386 8.88326 19.5578 8.88326H22.031C22.1602 8.88326 22.2694 8.97266 22.2992 9.09185L23.1038 12.2505C23.1435 12.3995 23.2826 12.5187 23.4415 12.4591L24.6632 11.7141C24.8222 11.6049 24.8718 11.4956 24.8321 11.3367L22.0509 0.768159C22.0211 0.648966 21.9019 0.55957 21.7827 0.55957H19.816C19.6869 0.55957 19.5776 0.648966 19.5478 0.768159H19.5379ZM21.4649 7.16489H20.1239C19.9451 7.16489 19.8061 6.99603 19.8558 6.81724L20.5312 4.18505C20.6007 3.90693 21.008 3.90693 21.0775 4.18505L21.743 6.81724C21.7927 6.99603 21.6536 7.16489 21.4748 7.16489H21.4649Z" fill="#231815"/>
<path d="M30.5632 0.5H28.4774C26.8583 0.5 26.0041 1.43368 26.0041 3.21166V9.67792C26.0041 11.4559 26.8583 12.3896 28.4774 12.3896H30.5632C32.2022 12.3896 33.0365 11.4758 33.0365 9.67792V3.21166C33.0365 1.41382 32.2022 0.5 30.5632 0.5ZM31.1394 3.25139V9.62825C31.1394 10.3136 30.9109 10.5917 30.3447 10.5917H28.7157C28.1496 10.5917 27.9112 10.3037 27.9112 9.62825V3.25139C27.9112 2.58589 28.1595 2.28791 28.7157 2.28791H30.3447C30.901 2.28791 31.1394 2.57596 31.1394 3.25139Z" fill="#231815"/>
<path d="M40.2576 6.9861C40.2576 7.28408 39.8504 7.37348 39.7213 7.10529L36.7712 0.6291L36.7414 0.55957H35.1621C35.0032 0.55957 34.884 0.688697 34.884 0.837689V12.0618C34.884 12.2207 35.0131 12.3399 35.1621 12.3399H36.4633C36.6222 12.3399 36.7414 12.2108 36.7414 12.0618V5.90342C36.7414 5.60544 37.1586 5.51604 37.2778 5.78423L40.2278 12.2704L40.2576 12.3399H41.8369C41.9959 12.3399 42.1151 12.2108 42.1151 12.0618V0.837689C42.1151 0.678764 41.9859 0.55957 41.8369 0.55957H40.5357C40.3768 0.55957 40.2576 0.688697 40.2576 0.837689V6.9861Z" fill="#231815"/>
<path d="M46.2571 7.20462H49.674C49.8329 7.20462 49.9521 7.07549 49.9521 6.9265V5.6849C49.9521 5.52597 49.823 5.40678 49.674 5.40678H46.2571C46.0982 5.40678 45.979 5.27765 45.979 5.12866V2.64546C45.979 2.48654 46.1081 2.36734 46.2571 2.36734H49.9919C50.1508 2.36734 50.27 2.23821 50.27 2.08922V0.837689C50.27 0.678764 50.1408 0.55957 49.9919 0.55957H44.35C44.1911 0.55957 44.0719 0.688697 44.0719 0.837689V12.0618C44.0719 12.2207 44.201 12.3399 44.35 12.3399H50.0912C50.2501 12.3399 50.3693 12.2108 50.3693 12.0618V10.8202C50.3693 10.6612 50.2402 10.542 50.0912 10.542H46.2571C46.0982 10.542 45.979 10.4129 45.979 10.2639V7.5026C45.979 7.34368 46.1081 7.22448 46.2571 7.22448V7.20462Z" fill="#5436EA"/>
<path d="M56.7361 0.55957H52.4551C52.2961 0.55957 52.1769 0.688697 52.1769 0.837689V12.0618C52.1769 12.2207 52.3061 12.3399 52.4551 12.3399H56.7361C58.375 12.3399 59.2094 11.4261 59.2094 9.62822V3.27123C59.2094 1.47339 58.375 0.55957 56.7361 0.55957ZM54.0741 2.62559C54.0741 2.46667 54.2032 2.34748 54.3522 2.34748H56.5076C57.0639 2.34748 57.3023 2.63553 57.3023 3.31096V9.56863C57.3023 10.254 57.0738 10.5321 56.5076 10.5321H54.3522C54.1933 10.5321 54.0741 10.403 54.0741 10.254V2.62559Z" fill="#5436EA"/>
<path d="M66.381 1.12548C66.2221 1.21488 66.1029 1.34401 66.1029 1.50293V9.62797C66.1029 10.3133 65.8744 10.5914 65.3082 10.5914H63.6793C63.1131 10.5914 62.8747 10.3034 62.8747 9.62797V1.50293C62.8747 1.34401 62.7356 1.20495 62.5966 1.12548L61.355 0.599045C61.206 0.539448 60.9775 0.678507 60.9775 0.837432V9.67763C60.9775 11.4556 61.8318 12.3893 63.4508 12.3893H65.5367C67.1756 12.3893 68.01 11.4755 68.01 9.67763V0.837432C68.01 0.678507 67.7914 0.539448 67.6325 0.599045L66.3909 1.12548H66.381Z" fill="#5436EA"/>
<rect x="75.3891" y="2.61084" width="1" height="12" rx="0.5" transform="rotate(-45 75.3891 2.61084)" fill="#1F2125"/>
<rect x="76.0962" y="11.0962" width="1" height="12" rx="0.5" transform="rotate(-135 76.0962 11.0962)" fill="#1F2125"/>
<path d="M131 7.4264H129.175V4.67175H128.172V7.29753H126.38V0.547839H128.172V2.67423H129.175V0.499512H131V7.4264ZM120.954 5.57386C120.45 6.5941 119.694 7.16866 118.685 7.29753V5.38055C119.157 5.26242 119.491 4.79526 119.688 3.97907C119.897 3.16287 120.006 2.03524 120.017 0.596166L121.842 0.676711C121.831 1.68621 121.749 2.67423 121.596 3.64078L122.418 5.01004C122.703 4.67712 122.911 4.14016 123.042 3.39914C123.174 2.65812 123.251 1.7238 123.273 0.596166L125.098 0.676711C125.087 1.69695 125.01 2.62591 124.867 3.46358L126.643 6.26655L125.311 7.20087L124.259 5.44499C123.755 6.55114 122.971 7.16866 121.908 7.29753L120.954 5.57386ZM131 7.94189V12.8229H119.968V7.94189H131ZM128.928 11.0832V9.68167H122.023V11.0832H128.928Z" fill="black"/>
<path d="M118.192 4.30125H116.695V6.55651H114.624V0.499512H116.695V2.35205H118.192V4.30125ZM113.966 5.79939C113.637 5.939 113.188 6.04639 112.618 6.12157C112.059 6.19674 111.451 6.23433 110.793 6.23433H105.861V0.69282H113.226V2.44871H107.932V4.47845H110.892C111.527 4.47845 112.114 4.44623 112.651 4.38179C113.199 4.30662 113.637 4.19922 113.966 4.05961V5.79939ZM116.876 11.3248V12.8229H106.272V9.27894H114.657V8.57014H106.239V7.072H116.695V10.616H108.36V11.3248H116.876Z" fill="black"/>
<path d="M92.4604 2.36803V0.918216H96.9982V0H99.1026V0.918216H103.64V2.36803H92.4604ZM92.8385 4.52664C92.8385 3.9145 93.3043 3.46344 94.236 3.17348C95.1677 2.88352 96.4392 2.73854 98.0504 2.73854C99.6616 2.73854 100.933 2.88352 101.865 3.17348C102.796 3.46344 103.262 3.9145 103.262 4.52664C103.262 5.14953 102.796 5.60058 101.865 5.8798C100.944 6.15903 99.6726 6.29864 98.0504 6.29864C96.4282 6.29864 95.1512 6.15903 94.2196 5.8798C93.2989 5.60058 92.8385 5.14953 92.8385 4.52664ZM101.191 4.52664C101.191 4.36555 100.906 4.24742 100.336 4.17224C99.7658 4.08633 99.004 4.04337 98.0504 4.04337C97.0968 4.04337 96.335 4.08633 95.7651 4.17224C95.1951 4.24742 94.9101 4.36555 94.9101 4.52664C94.9101 4.84882 95.9569 5.00991 98.0504 5.00991C100.144 5.00991 101.191 4.84882 101.191 4.52664ZM104.101 8.32838H92V6.83024H104.101V8.32838ZM98.0504 8.87608C99.7165 8.87608 101.032 9.04254 101.996 9.37547C102.972 9.70839 103.46 10.2292 103.46 10.938C103.46 11.6468 102.972 12.1677 101.996 12.5006C101.032 12.8335 99.7165 13 98.0504 13C96.3843 13 95.0636 12.8335 94.088 12.5006C93.1125 12.1677 92.6248 11.6468 92.6248 10.938C92.6248 10.2292 93.1125 9.70839 94.088 9.37547C95.0636 9.04254 96.3843 8.87608 98.0504 8.87608ZM98.0504 11.5502C99.0259 11.5502 99.8041 11.5019 100.385 11.4052C100.977 11.3086 101.273 11.1528 101.273 10.938C101.273 10.734 100.977 10.5836 100.385 10.487C99.7932 10.3796 99.015 10.3259 98.0504 10.3259C97.0858 10.3259 96.3021 10.3796 95.6993 10.487C95.1074 10.5836 94.8115 10.734 94.8115 10.938C94.8115 11.1528 95.1074 11.3086 95.6993 11.4052C96.2912 11.5019 97.0749 11.5502 98.0504 11.5502Z" fill="black"/>
</svg>
