<svg width="100" height="31" viewBox="0 0 100 31" fill="none" xmlns="http://www.w3.org/2000/svg">
<path d="M100 30.1406C97.506 30.7236 95.0221 31.0101 92.5518 31C90.0812 30.9899 87.5966 30.7035 85.1025 30.1406C82.6085 29.5778 80.1247 29.2914 77.6543 29.2812C75.1839 29.2711 72.7 29.5576 70.2061 30.1406V19.4561H100V30.1406ZM63.9365 24.7139H43.8154V26.6348C44.8703 26.6786 45.922 26.763 46.9668 26.8877C48.0116 27.0124 49.0397 27.1983 50.0508 27.4443C52.3662 28.0071 54.7355 28.2871 57.1621 28.2871C59.5887 28.2871 61.9581 28.0071 64.2734 27.4443V30.1406C61.9581 30.7034 59.5887 30.9834 57.1621 30.9834C54.7355 30.9834 52.3662 30.7034 50.0508 30.1406C47.7355 29.5778 45.366 29.2979 42.9395 29.2979C40.5128 29.2979 38.1426 29.5778 35.8271 30.1406V22.0176H55.9492V19.7939H35.8271V17.0977H63.9365V24.7139ZM15.7402 22.793C18.5712 22.793 20.8798 22.8678 22.666 23.0127C24.4523 23.1576 25.8512 23.3928 26.8623 23.7197C27.8732 24.0466 28.5573 24.4614 28.918 24.9668C29.2785 25.4723 29.457 26.086 29.457 26.8037C29.457 27.5215 29.2785 28.1416 28.918 28.6572C28.5574 29.1728 27.8733 29.5909 26.8623 29.9043C25.8512 30.2177 24.4523 30.4508 22.666 30.5957C20.8798 30.7406 18.5712 30.8144 15.7402 30.8145C12.9091 30.8145 10.5998 30.7406 8.81348 30.5957C7.02722 30.4508 5.62828 30.2177 4.61719 29.9043C3.60626 29.5909 2.92211 29.1728 2.56152 28.6572C2.20103 28.1416 2.02246 27.5214 2.02246 26.8037C2.02251 26.086 2.20094 25.4723 2.56152 24.9668C2.9222 24.4614 3.60631 24.0466 4.61719 23.7197C5.62828 23.3928 7.02724 23.1576 8.81348 23.0127C10.5998 22.8678 12.9091 22.793 15.7402 22.793ZM15.7402 24.4785C14.6381 24.4785 13.6839 24.5223 12.9424 24.6133C12.201 24.7043 11.611 24.8421 11.1729 25.0342C10.7349 25.2262 10.4216 25.4658 10.2295 25.7588C10.0374 26.0519 9.94243 26.3994 9.94238 26.8037C9.94238 27.2081 10.0374 27.5554 10.2295 27.8486C10.4216 28.1418 10.7348 28.3811 11.1729 28.5732C11.611 28.7653 12.2009 28.9041 12.9424 28.9951C13.6839 29.0861 14.6179 29.1299 15.7402 29.1299C16.8422 29.1299 17.769 29.0861 18.5205 28.9951C19.2721 28.9041 19.8685 28.7653 20.3066 28.5732C20.7448 28.3812 21.0579 28.1418 21.25 27.8486C21.4421 27.5554 21.5371 27.2081 21.5371 26.8037C21.5371 26.3994 21.4421 26.0519 21.25 25.7588C21.0579 25.4658 20.7445 25.2262 20.3066 25.0342C19.8685 24.8421 19.2719 24.7043 18.5205 24.6133C17.769 24.5223 16.8422 24.4785 15.7402 24.4785ZM78.126 26.6016C80.5088 26.6454 82.8343 26.9287 85.1025 27.4443C86.272 27.6903 87.4349 27.8893 88.5908 28.0342C89.7467 28.1791 90.9097 28.2635 92.0791 28.2871V22.1523H78.126V26.6016ZM31.4795 21.5127H0V18.8164H31.4795V21.5127ZM77.5527 8.53711L78.665 2.94238H83.9902L86.5186 17.6699H82.1709L80.5869 7.96387L78.9346 17.6699H74.7559L73.1045 7.99707L71.5205 17.6699L68.5879 18.0068C69.3192 14.1074 70.047 8.52624 70.7783 4.62695C70.8861 4.06429 70.9977 3.50505 71.1055 2.94238H76.4404L77.5527 8.53711ZM92.9219 9.10938H94.3711V2.50391H100V18.0068H94.3711V11.8057H92.9219V18.0068H87.2939V2.50391H92.9219V9.10938ZM15.7402 9.85156C18.369 9.85157 20.5193 9.92852 22.1943 10.0869C23.8694 10.2453 25.1839 10.475 26.1377 10.7783C27.0914 11.0816 27.7456 11.4761 28.0928 11.958C28.4398 12.4398 28.6152 12.9959 28.6152 13.626C28.6152 14.2764 28.4399 14.8397 28.0928 15.3115C27.7457 15.7833 27.0914 16.1703 26.1377 16.4736C25.1839 16.7769 23.8693 17.0066 22.1943 17.165C20.5193 17.3234 18.369 17.4014 15.7402 17.4014C13.1113 17.4014 10.9602 17.3234 9.28516 17.165C7.61021 17.0066 6.29556 16.7769 5.3418 16.4736C4.38842 16.1704 3.73486 15.7831 3.3877 15.3115C3.04054 14.8397 2.86523 14.2764 2.86523 13.626C2.86527 12.9756 3.04058 12.4399 3.3877 11.958C3.73483 11.4762 4.3882 11.0816 5.3418 10.7783C6.29557 10.475 7.61019 10.2453 9.28516 10.0869C10.9602 9.92851 13.1113 9.85156 15.7402 9.85156ZM15.7402 11.5361C14.7527 11.5361 13.9298 11.5874 13.2793 11.6885C12.6291 11.7895 12.1103 11.9309 11.7295 12.1094C11.3486 12.288 11.0815 12.5071 10.9365 12.7666C10.7917 13.026 10.7178 13.3126 10.7178 13.626C10.7178 13.9393 10.7917 14.2259 10.9365 14.4854C11.0815 14.7449 11.3486 14.964 11.7295 15.1426C12.1103 15.3211 12.629 15.4634 13.2793 15.5645C13.9298 15.6656 14.7527 15.7158 15.7402 15.7158C16.7275 15.7158 17.5498 15.6655 18.2002 15.5645C18.8507 15.4633 19.3701 15.3212 19.751 15.1426C20.1316 14.964 20.3981 14.7448 20.543 14.4854C20.6878 14.2259 20.7617 13.9393 20.7617 13.626C20.7617 13.3126 20.6879 13.0261 20.543 12.7666C20.3981 12.5071 20.1317 12.288 19.751 12.1094C19.3701 11.9308 18.8507 11.7896 18.2002 11.6885C17.5498 11.5874 16.7276 11.5361 15.7402 11.5361ZM63.9365 7.39062H67.1045V9.75H63.9365V15.6484H55.9492V2.50391H63.9365V7.39062ZM53.8252 5.97559H43.8154V12.2773H54.1621V14.9736H35.8271V3.2793H53.8252V5.97559ZM29.457 8.67188H2.02246V5.97559H29.457V8.67188ZM7.99805 0C8.00935 0.00913769 10.6159 2.11292 14.917 2.09961C17.3454 2.09288 23.9463 2.09958 23.9736 2.09961V4.87695C23.9448 4.87714 16.6856 4.92404 14.2637 4.87695C11.837 4.82977 9.11702 4.10807 7.99805 2.94531V0Z" fill="url(#paint0_linear_2964_14615)"/>
<defs>
<linearGradient id="paint0_linear_2964_14615" x1="50" y1="31" x2="58.506" y2="-1.07814" gradientUnits="userSpaceOnUse">
<stop stop-color="#355BE0"/>
<stop offset="1" stop-color="#B945CC"/>
</linearGradient>
</defs>
</svg>
