<svg width="192" height="192" viewBox="0 0 192 192" fill="none" xmlns="http://www.w3.org/2000/svg">
<rect width="192" height="192" rx="30" fill="url(#paint0_linear_3372_22447)"/>
<path d="M95.8746 125.585C105.966 125.585 114.196 125.881 120.563 126.462C126.93 127.042 131.916 127.987 135.52 129.297C139.124 130.606 141.563 132.267 142.848 134.292C144.134 136.317 144.77 138.774 144.77 141.649C144.77 144.525 144.134 147.009 142.848 149.074C141.563 151.14 139.124 152.814 135.52 154.069C131.916 155.325 126.93 156.256 120.563 156.837C114.196 157.417 105.966 157.714 95.8746 157.714C85.7834 157.714 77.5542 157.417 71.1871 156.837C64.82 156.256 59.8342 155.325 56.2301 154.069C52.6261 152.814 50.1875 151.14 48.902 149.074C47.6165 147.009 46.9801 144.525 46.9801 141.649C46.9801 138.774 47.6165 136.317 48.902 134.292C50.1874 132.267 52.6261 130.606 56.2301 129.297C59.8342 127.987 64.82 127.042 71.1871 126.462C77.5543 125.881 85.7834 125.585 95.8746 125.585ZM95.8746 132.335C91.9465 132.335 88.5468 132.51 85.9039 132.874C83.261 133.239 81.1581 133.792 79.5963 134.562C78.0345 135.331 76.9178 136.29 76.233 137.465C75.5483 138.639 75.2115 140.03 75.2115 141.649C75.2116 143.269 75.5483 144.66 76.233 145.834C76.9178 147.008 78.0347 147.967 79.5963 148.736C81.1581 149.506 83.2609 150.059 85.9039 150.424C88.5468 150.788 91.8744 150.964 95.8746 150.964C99.8029 150.964 103.107 150.788 105.786 150.424C108.465 150.059 110.591 149.506 112.153 148.736C113.715 147.967 114.832 147.008 115.517 145.834C116.202 144.66 116.539 143.269 116.539 141.649C116.539 140.03 116.202 138.639 115.517 137.465C114.832 136.29 113.715 135.331 112.153 134.562C110.591 133.792 108.465 133.238 105.786 132.874C103.107 132.51 99.8029 132.335 95.8746 132.335ZM151.978 120.455H39.7711V109.655H151.978V120.455ZM95.8746 73.7461C105.245 73.7461 112.91 74.056 118.88 74.6904C124.851 75.3249 129.537 76.243 132.937 77.458C136.337 78.673 138.668 80.2532 139.905 82.1836C141.142 84.1139 141.767 86.3411 141.767 88.8652C141.767 91.4706 141.142 93.7253 139.905 95.6152C138.668 97.5051 136.337 99.0575 132.937 100.272C129.537 101.487 124.851 102.406 118.88 103.04C112.91 103.674 105.245 103.985 95.8746 103.985C86.5042 103.985 78.8395 103.675 72.8688 103.04C66.8981 102.406 62.2129 101.487 58.8131 100.272C55.4133 99.0575 53.0827 97.5052 51.8453 95.6152C50.6079 93.7253 49.983 91.4707 49.983 88.8652C49.9831 86.26 50.6081 84.1139 51.8453 82.1836C53.0827 80.2531 55.4133 78.673 58.8131 77.458C62.2129 76.2431 66.8982 75.3249 72.8688 74.6904C78.8395 74.056 86.5042 73.7461 95.8746 73.7461ZM95.8746 80.4961C92.3548 80.4961 89.4237 80.6985 87.1051 81.1035C84.7865 81.5085 82.9363 82.0755 81.5787 82.791C80.2213 83.5065 79.2721 84.3835 78.7555 85.4229C78.2389 86.4623 77.9743 87.6098 77.9742 88.8652C77.9742 90.1206 78.239 91.2682 78.7555 92.3076C79.2721 93.3471 80.2212 94.2249 81.5787 94.9404C82.9363 95.6559 84.7865 96.2229 87.1051 96.6279C89.4236 97.0329 92.3548 97.2353 95.8746 97.2354C99.3946 97.2354 102.327 97.0329 104.645 96.6279C106.964 96.2229 108.814 95.6559 110.172 94.9404C111.529 94.225 112.477 93.347 112.994 92.3076C113.51 91.2681 113.775 90.1207 113.775 88.8652C113.775 87.6098 113.51 86.4623 112.994 85.4229C112.477 84.3837 111.529 83.5064 110.172 82.791C108.814 82.0756 106.964 81.5085 104.645 81.1035C102.327 80.6985 99.3946 80.4961 95.8746 80.4961ZM144.77 69.0205H46.9801V58.2207H144.77V69.0205ZM68.2799 34.2861C68.3264 34.3284 77.6171 42.7502 92.944 42.6963C101.609 42.6693 125.178 42.6962 125.224 42.6963V53.8193C125.177 53.8197 99.2549 54.0082 90.6129 53.8193C81.9632 53.6303 72.2684 50.7413 68.2799 46.084V34.2861Z" fill="white"/>
<defs>
<linearGradient id="paint0_linear_3372_22447" x1="96" y1="191.998" x2="201.038" y2="69.1994" gradientUnits="userSpaceOnUse">
<stop stop-color="#355BE0"/>
<stop offset="1" stop-color="#B945CC"/>
</linearGradient>
</defs>
</svg>
